<?xml version="1.0" standalone="no"?>
<!DOCTYPE svg PUBLIC "-//W3C//DTD SVG 20010904//EN"
 "http://www.w3.org/TR/2001/REC-SVG-20010904/DTD/svg10.dtd">
<svg version="1.0" xmlns="http://www.w3.org/2000/svg"
 width="2048.000000pt" height="2048.000000pt" viewBox="0 0 2048.000000 2048.000000"
 preserveAspectRatio="xMidYMid meet">
<metadata>
Created by potrace 1.14, written by Peter Selinger 2001-2017
</metadata>
<g transform="translate(0.000000,2048.000000) scale(0.100000,-0.100000)"
fill="#000000" stroke="none">
<path d="M0 10240 l0 -10240 10240 0 10240 0 0 10240 0 10240 -10240 0 -10240
0 0 -10240z m10593 7075 c67 -8 147 -22 177 -29 30 -8 84 -18 119 -21 35 -4
83 -16 106 -26 23 -10 66 -24 96 -30 59 -12 211 -66 299 -105 73 -33 179 -84
210 -100 77 -40 140 -76 176 -101 23 -15 75 -50 115 -78 96 -64 137 -95 234
-179 194 -167 409 -431 479 -589 13 -30 28 -57 34 -61 6 -3 13 -21 17 -39 4
-17 15 -47 26 -65 10 -18 28 -65 38 -105 11 -40 29 -103 41 -142 11 -38 25
-103 31 -143 6 -40 17 -92 25 -115 9 -23 22 -112 29 -197 8 -85 19 -195 25
-245 42 -364 60 -679 60 -1096 0 -285 -5 -325 -45 -335 -13 -3 -97 -1 -187 5
-89 6 -224 13 -298 16 -74 4 -178 11 -230 16 -52 5 -277 14 -500 19 -223 5
-495 14 -605 19 -110 6 -308 12 -440 15 -301 7 -279 -10 -270 195 4 80 7 360
8 621 2 520 -5 631 -48 769 -22 69 -35 93 -76 136 -28 29 -60 55 -72 58 -181
40 -164 39 -272 16 -76 -16 -111 -29 -145 -54 -75 -56 -121 -109 -131 -153 -5
-23 -20 -58 -34 -78 -14 -20 -25 -43 -25 -51 0 -7 -11 -35 -24 -61 -14 -29
-30 -90 -41 -157 -9 -60 -24 -153 -32 -205 -12 -68 -16 -154 -14 -305 1 -183
6 -234 32 -395 34 -203 62 -282 146 -418 49 -78 276 -306 368 -369 58 -39 88
-61 168 -123 32 -25 78 -56 102 -70 24 -14 70 -44 102 -67 54 -39 93 -66 319
-218 55 -37 86 -65 94 -86 7 -17 32 -43 54 -57 52 -34 433 -320 466 -351 14
-12 53 -44 88 -69 263 -196 785 -671 907 -827 22 -27 76 -93 120 -145 117
-138 271 -379 289 -452 3 -15 17 -44 31 -64 14 -20 25 -43 25 -51 0 -8 15 -51
34 -96 18 -45 37 -100 40 -122 4 -22 16 -60 27 -84 10 -23 23 -84 29 -135 21
-178 31 -229 62 -302 18 -41 35 -74 39 -74 9 0 15 94 18 310 1 96 7 270 12
385 6 116 12 413 15 660 2 248 12 668 21 935 10 287 17 717 17 1055 -1 945
-14 2427 -25 2645 -11 237 -26 512 -35 686 l-7 122 27 17 c26 18 32 18 124 1
53 -10 126 -23 162 -31 36 -7 94 -16 130 -20 36 -3 92 -15 125 -25 33 -10 116
-26 184 -35 69 -10 143 -24 165 -32 23 -8 73 -18 112 -23 39 -5 91 -16 117
-25 25 -8 102 -27 170 -40 69 -14 141 -32 160 -40 20 -8 48 -15 63 -15 27 0
77 -13 198 -51 33 -11 78 -19 100 -19 24 0 55 -9 74 -20 19 -12 63 -27 98 -34
74 -16 98 -33 115 -85 7 -20 18 -45 25 -56 12 -19 53 -124 95 -245 10 -30 25
-66 33 -80 8 -14 22 -52 31 -85 10 -33 28 -80 40 -105 12 -25 26 -60 30 -79 4
-19 20 -61 36 -95 17 -36 29 -78 29 -102 0 -24 10 -60 25 -88 13 -25 32 -71
41 -102 9 -31 27 -80 40 -108 13 -28 24 -60 24 -72 0 -12 14 -46 30 -77 16
-31 30 -66 30 -77 0 -12 9 -38 19 -58 10 -20 29 -71 41 -112 13 -41 31 -92 41
-112 11 -21 24 -61 30 -89 6 -29 24 -80 40 -113 16 -34 29 -69 29 -79 0 -10
13 -49 29 -85 16 -37 33 -85 37 -107 3 -22 17 -61 30 -87 13 -25 26 -66 30
-90 3 -24 17 -61 29 -83 13 -22 28 -67 35 -100 6 -33 22 -78 35 -100 13 -22
26 -63 30 -90 4 -28 16 -66 26 -86 10 -21 27 -68 38 -107 10 -38 28 -90 39
-114 10 -24 22 -62 26 -83 4 -22 19 -66 32 -97 13 -32 29 -81 35 -110 6 -29
18 -66 26 -82 8 -16 21 -64 29 -106 7 -42 27 -112 44 -154 16 -42 30 -84 30
-94 0 -9 12 -48 26 -87 13 -38 31 -101 40 -140 8 -38 26 -91 39 -117 14 -26
25 -61 25 -77 0 -15 9 -48 20 -73 10 -24 27 -80 35 -124 25 -124 33 -148 56
-172 26 -28 40 -24 51 14 11 40 2 1452 -11 1704 -6 113 -15 311 -21 440 -5
129 -19 303 -30 385 -11 83 -23 211 -26 285 -3 74 -14 196 -24 270 -11 74 -22
162 -25 195 -3 33 -10 89 -16 125 -5 36 -13 124 -18 195 -5 72 -16 146 -24
165 -16 38 -43 290 -33 315 10 27 18 25 246 -59 52 -19 138 -51 190 -71 52
-20 115 -44 140 -52 25 -9 72 -29 105 -44 33 -16 69 -29 80 -29 11 0 40 -11
65 -24 25 -13 65 -29 90 -36 25 -7 56 -20 71 -30 14 -10 38 -22 55 -26 46 -11
97 -40 128 -73 16 -17 45 -36 65 -42 20 -6 70 -26 111 -44 154 -68 216 -93
240 -100 14 -4 36 -16 50 -25 14 -10 44 -23 66 -29 45 -12 189 -84 216 -108
24 -22 65 -133 89 -241 11 -51 31 -122 45 -158 13 -35 24 -83 24 -107 0 -23 9
-64 19 -92 21 -56 51 -203 51 -252 0 -18 11 -67 24 -110 14 -43 29 -127 35
-186 6 -60 14 -113 17 -118 10 -18 44 -290 54 -437 5 -79 17 -180 25 -225 29
-153 36 -371 42 -1157 4 -689 3 -803 -12 -930 -9 -80 -22 -239 -30 -355 -17
-273 -33 -447 -50 -565 -8 -52 -16 -135 -19 -185 -2 -49 -13 -128 -24 -175
-12 -47 -28 -155 -37 -241 -9 -85 -25 -183 -35 -218 -11 -35 -20 -86 -20 -115
0 -28 -11 -94 -24 -146 -13 -52 -32 -144 -41 -203 -9 -60 -23 -127 -31 -150
-8 -23 -19 -71 -24 -107 -5 -36 -20 -99 -34 -140 -13 -41 -27 -98 -30 -127 -4
-29 -18 -82 -31 -118 -14 -36 -25 -74 -25 -84 0 -11 -16 -70 -35 -131 -19 -61
-35 -121 -35 -133 0 -12 -11 -43 -24 -67 -13 -25 -29 -72 -35 -105 -6 -32 -18
-69 -26 -81 -8 -13 -21 -50 -29 -82 -7 -31 -21 -73 -31 -91 -9 -19 -25 -57
-35 -85 -74 -214 -139 -326 -189 -326 -9 0 -43 -13 -76 -29 -33 -16 -78 -32
-100 -36 -22 -4 -56 -16 -75 -27 -19 -11 -73 -34 -120 -50 -47 -17 -121 -44
-165 -60 -140 -52 -448 -159 -515 -179 -36 -10 -87 -28 -115 -38 -65 -25 -300
-97 -345 -106 -19 -4 -48 -14 -64 -22 -16 -9 -66 -24 -110 -34 -45 -11 -105
-29 -133 -41 -71 -29 -99 -17 -107 44 -32 237 -48 346 -56 385 -6 25 -15 100
-20 167 -5 66 -16 141 -24 166 -8 25 -24 119 -36 210 -11 91 -32 219 -45 285
-14 66 -28 152 -31 190 -3 39 -11 88 -19 110 -14 41 -38 182 -54 315 -5 41
-16 93 -26 115 -9 22 -21 84 -26 138 -5 55 -16 115 -24 134 -8 19 -17 58 -21
86 -3 29 -12 79 -20 112 -8 33 -14 78 -14 100 0 22 -9 59 -20 83 -11 24 -24
78 -29 120 -11 83 -45 245 -60 285 -5 13 -13 58 -16 98 -4 41 -16 94 -26 119
-9 25 -25 95 -35 155 -9 61 -24 135 -34 165 -26 81 -40 154 -40 213 0 58 -48
207 -67 207 -19 0 -31 -58 -38 -188 -3 -68 -11 -149 -16 -180 -5 -31 -14 -163
-19 -292 -12 -314 -28 -563 -40 -630 -6 -30 -14 -145 -20 -255 -5 -110 -17
-240 -25 -290 -8 -49 -24 -214 -35 -365 -11 -151 -26 -309 -34 -350 -8 -41
-17 -127 -21 -190 -3 -63 -10 -137 -15 -165 -18 -90 -40 -267 -54 -432 -8 -88
-19 -171 -26 -183 -6 -12 -15 -72 -20 -133 -8 -106 -44 -360 -55 -389 -3 -7
-9 -62 -14 -121 -6 -68 -15 -117 -25 -132 -23 -36 -70 -56 -150 -66 -39 -5
-98 -18 -131 -28 -33 -11 -87 -23 -120 -27 -33 -3 -123 -20 -200 -36 -77 -16
-178 -34 -225 -38 -47 -5 -107 -16 -135 -25 -27 -9 -128 -25 -222 -36 -95 -11
-227 -31 -292 -44 -66 -14 -152 -25 -191 -25 -40 0 -118 -9 -173 -21 -122 -25
-164 -20 -174 19 -8 32 -9 18 11 207 8 83 20 247 26 365 22 474 32 608 47 678
20 95 15 264 -9 288 -15 15 -17 14 -32 -8 -8 -13 -24 -67 -35 -120 -11 -53
-29 -117 -40 -143 -12 -26 -21 -53 -21 -59 0 -6 -13 -36 -30 -66 -16 -30 -29
-63 -30 -72 0 -9 -11 -29 -24 -45 -13 -15 -35 -53 -49 -83 -70 -146 -357 -470
-501 -566 -31 -20 -56 -40 -56 -44 0 -7 -35 -33 -120 -90 -21 -14 -68 -46
-106 -71 -38 -25 -89 -58 -114 -72 -83 -47 -347 -177 -360 -177 -7 0 -33 -11
-59 -24 -57 -30 -270 -101 -329 -110 -24 -4 -61 -15 -83 -26 -21 -11 -49 -20
-63 -20 -26 0 -218 -30 -356 -56 -133 -25 -572 -31 -720 -10 -63 9 -182 26
-265 37 -82 11 -177 29 -210 39 -33 11 -82 22 -110 26 -27 3 -76 17 -109 30
-32 13 -75 27 -95 30 -19 4 -63 20 -96 36 -33 15 -66 28 -74 28 -20 0 -352
166 -425 213 -36 23 -91 58 -123 77 -31 19 -80 53 -108 75 -27 23 -88 68 -134
100 -106 75 -373 342 -446 445 -30 42 -61 82 -69 89 -8 7 -33 44 -57 84 -23
40 -50 84 -60 99 -10 15 -30 51 -44 80 -14 29 -31 64 -39 78 -18 33 -55 123
-73 180 -8 25 -24 68 -35 95 -11 28 -27 77 -35 110 -9 33 -26 92 -39 131 -13
38 -28 104 -34 145 -6 40 -22 107 -36 147 -13 40 -24 94 -24 120 0 26 -7 79
-15 117 -27 125 -55 356 -65 530 -5 94 -13 193 -19 220 -16 78 -30 320 -37
660 -5 265 -4 313 9 329 14 18 28 19 258 18 134 -1 395 -7 579 -12 184 -6 551
-17 815 -25 264 -8 569 -15 677 -15 165 0 199 -2 212 -16 9 -8 16 -16 17 -17
0 -1 2 -346 5 -767 5 -807 15 -1080 44 -1195 10 -38 21 -95 25 -125 9 -67 69
-181 122 -231 25 -23 66 -46 118 -65 70 -25 94 -29 185 -28 99 0 109 2 180 36
43 20 94 54 120 80 59 58 116 152 130 212 6 27 20 68 30 92 11 23 20 62 20 86
0 24 6 81 14 128 8 47 17 144 20 215 7 144 -9 589 -24 675 -5 30 -14 105 -19
165 -5 61 -16 126 -24 145 -8 19 -23 73 -32 119 -17 82 -69 206 -116 273 -64
91 -212 240 -443 443 -37 33 -88 77 -112 99 -24 21 -53 54 -65 73 -12 19 -44
52 -73 73 -28 21 -78 59 -111 84 -82 61 -140 105 -185 141 -21 17 -61 46 -90
65 -28 19 -81 60 -118 90 -37 30 -100 78 -141 105 -40 28 -92 66 -115 86 -22
20 -54 44 -71 53 -42 23 -121 80 -180 130 -27 24 -63 51 -80 62 -28 17 -165
119 -258 191 -23 18 -53 41 -67 50 -14 10 -67 51 -119 93 -52 41 -127 99 -165
129 -166 127 -351 300 -440 411 -89 111 -155 208 -182 265 -14 30 -32 59 -39
65 -8 7 -19 28 -26 48 -6 20 -21 51 -33 67 -12 17 -30 50 -40 75 -39 101 -71
155 -91 155 -27 0 -44 -51 -44 -135 -1 -96 -21 -255 -42 -336 -11 -38 -19 -95
-19 -125 0 -30 -9 -103 -20 -164 -23 -126 -46 -296 -55 -405 -4 -41 -15 -112
-26 -158 -10 -46 -19 -112 -19 -147 0 -36 -7 -113 -15 -172 -8 -59 -22 -155
-30 -213 -8 -58 -19 -170 -25 -250 -5 -80 -17 -170 -26 -200 -9 -31 -19 -128
-24 -225 -11 -209 -35 -493 -49 -560 -5 -27 -12 -131 -15 -230 -3 -99 -13
-218 -21 -265 -16 -83 -22 -191 -45 -705 -6 -137 -17 -317 -25 -400 -8 -82
-17 -316 -20 -520 -3 -203 -10 -464 -15 -580 -5 -115 -10 -325 -10 -465 0
-301 -1 -306 -79 -297 -25 3 -77 13 -116 21 -38 9 -115 21 -170 26 -55 6 -140
15 -190 20 -49 5 -112 16 -139 25 -27 8 -74 15 -105 15 -31 0 -87 7 -125 15
-98 21 -235 43 -349 55 -55 7 -118 18 -140 26 -23 8 -71 17 -107 20 -36 3 -94
12 -130 20 -125 27 -282 54 -321 54 -22 0 -65 9 -97 20 -31 11 -82 23 -112 26
-75 8 -215 33 -275 49 -27 7 -77 16 -110 20 -33 3 -87 15 -120 25 -33 11 -112
26 -175 35 -63 9 -135 24 -160 34 -25 10 -73 21 -108 25 -34 3 -107 17 -161
31 -55 14 -135 30 -178 36 -43 6 -98 19 -123 29 -25 10 -70 21 -100 25 -99 11
-90 -2 -275 400 -13 28 -39 84 -58 125 -20 41 -39 86 -43 100 -3 14 -17 43
-29 65 -13 22 -26 54 -30 72 -3 18 -14 42 -24 55 -10 13 -24 41 -31 63 -7 22
-25 67 -40 100 -15 33 -33 78 -40 100 -7 22 -21 52 -31 67 -11 14 -19 32 -19
38 0 7 -15 49 -34 94 -64 150 -88 211 -107 265 -11 30 -26 65 -34 77 -8 12
-19 44 -26 71 -6 26 -22 67 -35 89 -13 23 -28 63 -34 90 -6 27 -19 61 -30 76
-11 15 -24 48 -30 73 -6 26 -19 64 -30 86 -11 21 -27 64 -35 95 -8 31 -23 71
-34 89 -10 18 -24 56 -30 86 -7 29 -22 76 -36 104 -26 55 -57 143 -87 250 -11
39 -30 90 -43 115 -12 25 -26 63 -30 85 -4 22 -18 66 -31 98 -14 33 -30 83
-35 113 -6 30 -18 69 -29 87 -10 18 -28 79 -40 136 -12 58 -30 125 -39 150
-10 25 -21 66 -25 90 -4 24 -14 57 -22 74 -9 16 -29 81 -45 144 -16 62 -35
126 -44 142 -8 17 -15 44 -15 61 0 17 -9 56 -20 88 -12 31 -32 109 -46 172
-14 63 -34 139 -44 168 -11 29 -20 63 -20 75 0 13 -9 57 -19 98 -26 97 -48
210 -57 284 -4 33 -15 82 -26 109 -10 27 -23 92 -28 145 -5 53 -16 128 -24
166 -22 106 -45 289 -51 411 -3 60 -13 196 -22 303 -16 197 -15 271 7 601 14
209 63 468 106 554 13 28 24 57 24 67 0 9 16 47 34 85 41 82 83 120 216 193
52 29 122 69 155 88 33 20 87 50 120 68 33 17 89 49 125 69 36 21 108 61 160
88 52 28 106 58 120 68 14 10 43 26 65 37 39 20 98 52 220 119 33 18 87 47
120 64 33 17 86 45 117 63 31 18 110 59 175 91 65 33 125 65 133 72 16 12 211
116 323 171 44 21 72 42 79 59 9 19 45 41 137 87 70 33 133 66 141 72 8 7 36
20 62 30 26 10 52 23 58 30 6 7 36 23 68 36 31 12 73 33 92 46 19 13 49 23 67
23 40 0 49 -24 34 -91 -6 -25 -13 -90 -16 -145 -4 -54 -15 -128 -25 -164 -10
-36 -21 -112 -24 -169 -3 -57 -11 -134 -16 -170 -35 -237 -50 -572 -53 -1166
-2 -503 15 -1234 34 -1410 5 -49 14 -153 19 -230 6 -77 17 -189 25 -250 8 -60
17 -175 21 -255 4 -79 13 -169 20 -200 8 -30 23 -152 34 -270 10 -118 31 -282
46 -365 14 -82 30 -198 35 -258 4 -59 15 -131 24 -159 8 -29 20 -111 25 -183
22 -283 39 -395 60 -395 32 0 35 44 35 525 1 446 12 768 36 1005 5 52 16 190
24 305 7 116 20 244 28 285 9 41 20 136 26 210 20 240 29 314 45 375 9 32 16
84 16 115 0 54 26 255 34 268 2 4 14 82 26 172 12 91 28 180 36 198 8 18 18
72 23 120 5 48 16 116 25 152 8 36 22 95 30 132 9 37 16 85 16 108 0 22 9 58
20 79 10 22 26 87 35 145 9 58 22 124 30 147 8 22 22 80 31 127 9 48 23 103
31 122 14 31 30 100 53 215 4 22 15 57 24 77 9 21 16 50 16 66 0 17 11 59 24
95 14 35 32 102 42 148 9 46 25 101 35 121 11 21 19 49 19 62 0 14 11 56 25
93 14 37 30 98 35 135 6 38 21 94 34 126 13 31 27 73 31 92 3 19 20 74 36 122
16 47 29 95 29 106 0 10 11 39 24 64 13 25 30 72 36 104 7 33 22 79 35 104 12
25 25 62 28 83 9 58 46 98 123 134 76 36 286 121 404 163 41 15 95 36 120 47
50 23 174 70 265 101 33 11 105 37 160 57 55 21 130 46 167 56 36 10 81 26
100 35 18 10 69 28 113 40 44 12 107 31 140 42 134 46 164 55 260 81 55 15
114 35 132 44 18 9 44 17 58 17 15 0 59 11 100 25 40 14 114 34 165 46 51 11
105 26 120 34 15 8 47 17 71 21 57 8 196 42 231 55 38 15 76 4 84 -25 3 -13
-8 -71 -25 -132 -16 -60 -35 -143 -41 -184 -6 -41 -20 -98 -30 -125 -10 -28
-20 -75 -22 -105 -3 -53 -2 -55 22 -52 16 1 44 23 75 57 28 30 97 90 155 134
58 44 119 90 135 104 17 13 62 45 100 70 39 26 81 55 95 65 95 70 445 254 554
292 32 11 64 24 70 29 6 5 40 18 76 29 36 12 97 32 135 46 39 14 80 26 92 26
13 0 51 11 85 24 35 13 108 31 163 40 55 9 141 23 190 32 155 27 232 31 523
33 200 1 319 -3 405 -14z m7475 -11817 c19 -19 15 -37 -34 -143 -25 -55 -60
-129 -76 -165 -16 -36 -38 -82 -49 -103 -11 -21 -27 -56 -34 -78 -8 -22 -23
-52 -34 -67 -36 -52 -36 -84 3 -170 20 -44 36 -86 36 -94 0 -7 13 -40 30 -73
16 -33 30 -67 30 -75 0 -8 10 -33 21 -55 12 -22 32 -69 44 -105 12 -36 30 -78
38 -95 73 -140 78 -174 29 -199 -42 -21 -128 -38 -152 -31 -27 9 -80 91 -80
124 0 15 -10 42 -22 61 -11 19 -29 60 -39 90 -30 93 -75 193 -91 204 -23 14
-46 -8 -59 -58 -6 -22 -21 -57 -32 -76 -20 -32 -22 -52 -27 -237 -6 -226 -2
-214 -84 -257 -60 -32 -89 -33 -118 -4 -21 21 -21 22 -15 367 4 190 11 468 17
616 5 149 11 316 13 372 3 122 7 127 100 153 77 22 105 17 114 -18 8 -33 -4
-331 -18 -441 -8 -62 -8 -94 0 -113 21 -55 52 -24 64 64 3 20 17 53 30 75 14
21 28 54 32 73 4 19 16 51 26 70 10 19 30 64 45 100 100 248 114 269 195 286
74 16 83 16 97 2z m-15289 -159 c11 -7 24 -22 30 -34 21 -45 61 -195 61 -231
0 -22 9 -59 20 -83 11 -23 25 -73 31 -110 23 -132 38 -207 58 -276 11 -38 20
-87 20 -108 1 -47 25 -107 44 -107 34 0 41 30 48 221 4 104 10 193 13 197 9
15 36 262 36 329 0 123 28 146 144 119 92 -21 110 -39 103 -98 -4 -24 -11 -92
-17 -153 -6 -60 -20 -144 -31 -187 -10 -42 -19 -107 -19 -145 0 -37 -5 -97
-11 -133 -31 -195 -53 -358 -68 -505 -13 -119 -45 -231 -70 -244 -12 -7 -38
-4 -84 10 -77 23 -102 50 -117 126 -5 26 -25 97 -44 156 -20 60 -36 118 -36
130 0 12 -9 41 -19 63 -10 23 -22 57 -25 75 -4 19 -24 93 -45 164 -22 72 -56
200 -76 285 -20 85 -48 183 -61 218 -13 34 -24 74 -24 87 0 14 -11 51 -24 83
-27 64 -42 144 -31 163 10 15 165 6 194 -12z m14276 -73 c69 -33 91 -56 131
-141 l34 -74 0 -150 c0 -137 -2 -158 -27 -228 -26 -78 -48 -115 -110 -186 -41
-46 -41 -68 -4 -160 15 -40 31 -90 35 -112 4 -21 20 -67 36 -101 15 -35 31
-77 35 -95 4 -17 16 -50 26 -73 26 -58 25 -112 -3 -130 -32 -20 -144 -37 -172
-26 -16 6 -30 28 -49 82 -15 40 -30 89 -33 108 -4 19 -18 55 -30 80 -13 25
-24 55 -24 67 0 31 -46 174 -65 201 -11 14 -26 22 -45 22 -54 0 -57 -17 -65
-325 -5 -191 -11 -290 -20 -311 -11 -26 -22 -33 -72 -47 -76 -22 -110 -22
-121 1 -6 10 -9 334 -8 765 l1 749 27 23 c17 15 55 29 100 39 265 55 345 59
423 22z m-13372 -75 c26 -4 53 -13 60 -20 8 -8 14 -69 19 -184 3 -95 11 -210
16 -257 23 -185 31 -281 37 -430 3 -85 13 -264 22 -398 20 -291 22 -284 -78
-263 -33 6 -71 16 -84 21 -49 19 -52 34 -74 405 -12 193 -30 438 -41 545 -26
251 -43 518 -35 550 11 44 25 53 70 45 22 -3 61 -10 88 -14z m384 -52 c15 -6
78 -14 140 -19 105 -7 145 -17 258 -65 17 -7 58 -39 93 -70 49 -45 72 -76 103
-140 39 -82 39 -83 46 -237 7 -181 1 -209 -63 -275 -24 -24 -44 -47 -44 -49 0
-2 23 -33 50 -69 73 -92 93 -166 94 -355 1 -130 -1 -151 -22 -205 -29 -73 -50
-97 -116 -130 -39 -20 -65 -25 -123 -25 -93 0 -380 63 -406 89 -22 22 -32 115
-47 460 -6 134 -19 307 -31 385 -14 99 -22 222 -26 411 -6 248 -5 272 11 288
20 20 43 21 83 6z m12102 -13 c54 -28 118 -105 145 -176 16 -41 18 -91 17
-540 -2 -471 -3 -499 -23 -575 -25 -94 -66 -155 -161 -240 -51 -46 -79 -62
-138 -81 -92 -29 -132 -30 -206 -3 -70 26 -147 96 -167 154 -23 63 -32 1027
-11 1108 8 32 15 68 15 80 0 26 60 129 98 170 27 29 149 106 187 119 11 3 60
6 108 7 74 1 95 -3 136 -23z m-659 -71 c17 -21 7 -230 -15 -300 -8 -28 -15
-78 -15 -113 0 -34 -9 -104 -20 -155 -23 -108 -35 -190 -55 -382 -8 -77 -21
-159 -29 -183 -8 -23 -18 -89 -21 -145 -3 -57 -9 -117 -14 -135 -5 -18 -13
-69 -17 -115 -9 -105 -21 -129 -86 -161 -59 -30 -94 -33 -125 -11 -30 21 -42
68 -54 208 -6 75 -17 137 -30 170 -16 39 -24 99 -35 242 -8 105 -19 207 -25
227 -11 41 -27 57 -39 38 -12 -19 -49 -215 -56 -295 -3 -38 -10 -83 -15 -99
-5 -16 -14 -80 -20 -143 -5 -63 -19 -142 -30 -175 -10 -33 -19 -84 -19 -113 0
-106 -32 -141 -135 -152 -48 -5 -56 -3 -79 20 -15 15 -26 37 -26 53 0 14 -7
65 -15 113 -32 189 -47 305 -55 408 -4 59 -15 128 -24 153 -10 26 -21 99 -26
170 -16 216 -56 470 -77 487 -11 9 -24 8 -56 -4 -23 -8 -70 -14 -104 -14 -51
1 -66 -3 -88 -21 l-26 -23 1 -688 c0 -437 -3 -694 -9 -706 -12 -21 -45 -36
-119 -50 -64 -13 -87 -4 -96 40 -3 17 -6 329 -6 693 0 774 9 712 -104 702 -39
-3 -88 -2 -110 3 -28 7 -49 5 -78 -5 -22 -8 -66 -14 -97 -14 -31 -1 -107 -7
-170 -14 -164 -20 -155 -4 -152 -268 2 -160 5 -216 15 -226 11 -11 41 -12 171
-2 195 15 190 18 190 -106 0 -117 0 -117 -195 -134 -100 -9 -157 -19 -166 -28
-11 -10 -14 -58 -14 -220 0 -175 3 -211 16 -231 13 -18 23 -22 48 -18 122 20
182 26 263 27 112 0 113 -1 113 -123 0 -136 17 -130 -450 -168 -165 -13 -205
-10 -214 19 -3 9 -6 383 -8 830 l-2 813 26 25 c27 28 23 27 258 45 85 6 171
18 190 26 60 24 107 31 155 22 36 -7 54 -5 78 7 22 12 76 19 181 25 83 4 185
13 226 19 152 21 224 27 264 19 30 -5 55 -2 96 12 64 23 172 26 189 5 6 -7 13
-58 16 -112 3 -54 10 -112 15 -129 14 -48 29 -188 40 -370 12 -190 24 -268 46
-285 21 -18 40 36 48 135 15 182 29 292 42 328 8 20 14 63 14 95 0 32 9 92 20
133 11 41 20 90 20 110 0 19 7 59 15 87 18 58 49 82 109 82 39 0 63 -19 72
-58 3 -15 8 -34 10 -42 9 -28 35 -184 44 -265 22 -195 84 -513 105 -533 3 -3
11 0 17 6 13 13 24 118 38 367 5 94 16 206 24 250 9 44 19 122 22 173 9 114
18 129 99 146 83 18 110 18 125 1z m-10425 -45 c105 -9 335 -36 402 -46 50 -7
69 -41 76 -131 7 -87 -4 -117 -46 -125 -13 -3 -73 -1 -133 3 -83 5 -120 12
-149 28 -49 26 -57 26 -80 1 -17 -18 -17 -35 -11 -222 6 -177 10 -205 25 -221
23 -23 125 -46 206 -47 76 0 132 -16 145 -39 5 -10 11 -53 12 -95 4 -103 1
-105 -140 -99 -59 3 -122 12 -141 19 -90 37 -98 15 -82 -209 14 -174 25 -218
58 -232 30 -11 173 -36 262 -44 108 -11 125 -27 135 -128 11 -113 -5 -129
-111 -113 -37 5 -108 14 -158 20 -49 6 -123 20 -162 30 -40 11 -95 20 -123 20
-93 0 -108 20 -116 152 -3 51 -9 158 -15 238 -6 80 -14 303 -19 495 -5 193
-13 388 -19 435 -5 47 -12 133 -16 191 -6 93 -5 108 11 123 12 13 26 16 48 12
17 -3 81 -10 141 -16z m1502 -158 c39 -20 72 -45 85 -66 13 -19 40 -54 60 -78
21 -25 56 -85 78 -135 33 -75 40 -102 40 -154 0 -88 -12 -99 -107 -99 -65 0
-77 3 -98 25 -14 13 -25 34 -25 45 0 32 -59 162 -82 183 -27 23 -134 24 -166
1 -42 -29 -56 -72 -53 -163 2 -69 7 -95 29 -140 23 -47 36 -60 87 -88 33 -18
76 -40 95 -48 19 -9 42 -20 50 -25 8 -5 37 -21 63 -36 78 -41 128 -95 177
-189 l44 -87 1 -207 0 -206 -38 -66 c-48 -85 -73 -112 -135 -143 -44 -23 -64
-26 -146 -26 -89 0 -98 2 -163 36 -87 46 -147 95 -181 148 -14 22 -34 50 -43
61 -16 19 -36 78 -60 182 -15 60 4 97 51 101 49 5 135 -7 154 -21 9 -7 27 -52
40 -102 27 -101 40 -116 120 -141 63 -20 94 -14 139 25 l32 30 -2 131 c-1 72
-7 146 -13 165 -14 42 -84 106 -154 140 -184 89 -313 200 -337 290 -6 22 -18
56 -27 75 -20 45 -29 234 -13 296 7 25 34 92 61 148 43 88 55 105 94 129 66
41 90 47 191 44 78 -3 98 -8 152 -35z m843 -52 c52 -11 108 -24 123 -27 50
-10 67 -45 67 -139 0 -113 -5 -117 -124 -108 -140 10 -131 40 -117 -392 6
-196 18 -471 25 -612 23 -425 23 -397 0 -423 -14 -16 -31 -19 -93 -19 -86 0
-116 14 -125 58 -9 44 -37 711 -44 1059 -5 243 -10 325 -20 335 -8 8 -49 15
-103 18 -122 8 -133 18 -138 140 -2 73 0 96 14 117 l17 26 212 -6 c160 -4 234
-11 306 -27z m611 -65 c57 -8 122 -17 144 -20 62 -8 163 -79 207 -146 88 -132
118 -376 70 -565 -22 -84 -29 -97 -83 -158 -42 -48 -59 -75 -59 -95 0 -15 16
-72 35 -127 19 -54 35 -107 35 -117 0 -10 9 -36 21 -58 11 -22 31 -79 44 -127
13 -48 40 -136 61 -195 46 -132 43 -141 -42 -145 -114 -6 -177 29 -189 105 -4
26 -14 60 -22 76 -8 16 -23 69 -34 119 -11 49 -31 112 -44 139 -14 26 -25 63
-25 81 0 18 -9 52 -20 76 -10 23 -22 58 -26 77 -7 38 -53 85 -83 85 -10 0 -26
-9 -36 -20 -16 -18 -17 -39 -9 -322 5 -167 7 -312 6 -323 -5 -39 -29 -50 -105
-49 -88 0 -113 13 -126 62 -10 39 -39 829 -48 1327 -4 214 -3 297 6 313 11 20
19 22 115 22 56 0 149 -7 207 -15z m4672 -2 c13 -16 16 -109 18 -828 2 -445 0
-819 -4 -830 -4 -11 -17 -26 -28 -34 -31 -19 -129 -31 -156 -18 -28 12 -69 90
-77 147 -4 24 -15 58 -25 75 -10 16 -26 64 -36 105 -10 41 -28 95 -40 120 -12
25 -26 63 -29 85 -4 22 -16 54 -25 70 -10 17 -26 71 -36 120 -9 50 -21 98 -26
108 -14 24 -46 21 -55 -5 -5 -13 -7 -204 -5 -424 l3 -401 -23 -17 c-17 -11
-46 -16 -101 -16 -69 0 -79 2 -92 23 -21 31 -36 1628 -16 1676 14 35 20 37
111 46 60 6 69 5 88 -14 12 -12 21 -29 21 -38 0 -10 14 -45 30 -78 17 -33 30
-66 30 -74 0 -17 65 -219 92 -286 11 -27 25 -68 31 -90 31 -122 89 -291 106
-307 10 -11 15 -9 28 7 12 16 13 35 7 100 -11 109 -12 724 -1 755 12 36 23 40
113 40 65 0 84 -4 97 -17z m-3500 -38 c99 -3 112 -18 112 -131 0 -119 7 -115
-224 -113 -167 1 -186 0 -198 -17 -10 -13 -13 -70 -13 -230 0 -264 -16 -244
195 -244 82 0 155 -4 162 -8 31 -19 46 -158 23 -216 -13 -36 -39 -39 -201 -27
-124 10 -145 10 -158 -4 -16 -16 -16 -15 -12 -245 4 -186 12 -227 49 -242 15
-5 103 -11 196 -12 191 -3 196 -5 196 -82 0 -27 7 -50 20 -65 l20 -24 19 22
c14 17 21 46 26 110 3 49 13 117 20 153 34 164 44 219 50 280 3 36 14 88 24
115 11 28 24 91 30 140 16 126 30 203 46 253 8 23 15 67 15 96 0 30 9 83 20
118 12 34 30 121 40 193 24 156 33 170 113 170 85 -1 103 -9 120 -57 23 -69
49 -178 59 -248 5 -36 15 -86 24 -112 8 -25 26 -113 40 -193 14 -81 33 -173
44 -204 10 -31 22 -87 26 -126 3 -38 13 -85 20 -104 13 -32 18 -52 50 -244 8
-48 24 -110 34 -138 11 -27 23 -82 26 -122 4 -39 13 -87 20 -106 19 -47 17
-67 -8 -85 -26 -18 -148 -22 -177 -6 -31 16 -58 105 -71 234 -7 69 -12 83 -35
103 -24 21 -36 23 -144 23 -141 0 -145 -3 -156 -105 -10 -104 -34 -201 -56
-230 -19 -23 -27 -25 -91 -25 -54 0 -79 5 -104 21 -32 19 -34 19 -59 3 -33
-21 -60 -22 -380 -5 -212 12 -253 16 -268 31 -21 19 -26 174 -43 1237 -7 427
-7 444 12 464 19 21 22 21 249 14 127 -4 261 -9 298 -10z m2122 -20 l25 -24 2
-653 c1 -359 2 -735 2 -835 1 -135 -2 -185 -12 -195 -13 -13 -131 -27 -170
-20 -12 3 -27 14 -33 25 -7 13 -13 163 -16 426 -5 419 -7 440 -45 426 -23 -9
-35 -47 -48 -149 -6 -49 -20 -106 -31 -127 -10 -21 -19 -53 -19 -71 -1 -38
-59 -190 -83 -219 -26 -29 -62 -24 -91 14 -33 43 -65 116 -66 147 0 14 -7 39
-16 55 -9 17 -27 82 -39 145 -21 105 -26 117 -56 142 l-33 28 -9 -22 c-5 -13
-7 -198 -5 -411 l3 -389 -24 -19 c-20 -17 -37 -19 -100 -17 -73 3 -76 4 -91
33 -17 34 -27 462 -30 1244 -1 394 1 446 15 460 12 12 36 16 95 16 95 0 119
-17 139 -97 8 -29 20 -66 28 -81 8 -16 23 -59 33 -95 10 -37 27 -93 38 -124
11 -31 24 -79 27 -105 4 -26 18 -66 32 -87 16 -25 28 -63 34 -107 24 -196 85
-182 138 31 16 63 39 133 50 155 12 21 21 51 21 65 0 15 12 60 26 101 14 41
31 101 39 134 19 82 62 186 87 208 15 13 38 17 90 17 60 0 72 -3 93 -25z"/>
<path d="M16796 5050 c-64 -12 -66 -18 -66 -258 0 -128 4 -221 10 -233 14 -25
69 -25 101 0 13 10 35 22 49 26 32 9 76 50 89 84 30 74 31 286 1 341 -25 47
-83 60 -184 40z"/>
<path d="M4216 4867 c-13 -19 -14 -48 -6 -196 13 -230 24 -247 164 -239 86 5
101 20 110 115 7 75 -14 224 -36 251 -44 55 -119 92 -185 92 -23 0 -37 -7 -47
-23z"/>
<path d="M4267 4213 c-9 -8 -8 -242 2 -351 8 -97 14 -105 99 -123 46 -9 61 -9
88 5 56 26 69 65 67 190 -2 115 -26 208 -61 239 -38 32 -175 61 -195 40z"/>
<path d="M15965 4912 c-30 -6 -64 -41 -93 -97 l-27 -50 0 -488 0 -489 29 -25
c26 -22 37 -25 82 -21 66 6 101 29 124 81 16 38 18 90 24 498 5 403 4 462 -10
505 -9 27 -22 55 -29 62 -15 16 -72 30 -100 24z"/>
<path d="M7949 4453 c-5 -15 -7 -38 -4 -51 3 -13 8 -99 11 -190 2 -92 7 -179
10 -195 8 -37 50 -57 119 -57 53 0 59 3 103 44 46 44 46 44 53 127 4 46 4 118
-1 161 -18 155 -52 188 -193 188 -86 0 -88 0 -98 -27z"/>
<path d="M9790 4005 c-7 -8 -16 -52 -21 -97 -6 -46 -16 -105 -24 -133 -9 -27
-18 -79 -21 -115 -8 -87 3 -100 89 -100 97 0 106 16 76 128 -11 42 -24 125
-28 184 -6 83 -12 112 -26 128 -22 24 -29 25 -45 5z"/>
</g>
</svg>
