<?xml version="1.0" encoding="UTF-8" standalone="no"?>
<!DOCTYPE svg PUBLIC "-//W3C//DTD SVG 1.1//EN" "http://www.w3.org/Graphics/SVG/1.1/DTD/svg11.dtd">
<svg width="100%" height="100%" viewBox="0 0 450 151" version="1.1" xmlns="http://www.w3.org/2000/svg" xmlns:xlink="http://www.w3.org/1999/xlink" xml:space="preserve" xmlns:serif="http://www.serif.com/" style="fill-rule:evenodd;clip-rule:evenodd;stroke-linejoin:round;stroke-miterlimit:2;">
    <g transform="matrix(1,0,0,1,-5055,-1680)">
        <g transform="matrix(1,0,0,1,4320,1215)">
            <g transform="matrix(1,0,0,1,883.393,582.392)">
                <path d="M0,-40.617L0,-6.667C0,-5.531 -0.452,-4.441 -1.255,-3.637L-33.734,28.842C-36.145,31.253 -39.416,32.608 -42.826,32.608L-129.048,32.608C-132.866,32.608 -134.778,27.991 -132.078,25.291L-35.22,-71.552C-33.547,-73.225 -30.833,-73.225 -29.16,-71.552L-1.255,-43.648C-0.452,-42.844 0,-41.754 0,-40.617" style="fill:white;fill-rule:nonzero;"/>
            </g>
        </g>
        <g transform="matrix(1,0,0,1,4320,1215)">
            <g transform="matrix(1,0,0,1,1011.43,463.564)">
                <path d="M0,151.436L-137.134,151.436C-140.953,151.436 -142.865,146.82 -140.165,144.12L1.255,2.7C3.955,0 8.571,1.912 8.571,5.73L8.571,142.864C8.571,147.598 4.734,151.436 0,151.436" style="fill:white;fill-rule:nonzero;"/>
            </g>
        </g>
        <g transform="matrix(1,0,0,1,4320,1215)">
            <g transform="matrix(1,0,0,1,1185,609.279)">
                <path d="M0,-139.993L0,-2.85C0,1.885 -3.836,5.721 -8.571,5.721L-141.428,5.721C-146.164,5.721 -150,1.885 -150,-2.85L-149.989,-139.982C-149.989,-143.796 -145.371,-145.714 -142.671,-143.014L-75,-77.7L-74.989,-139.993C-74.989,-142.361 -73.071,-144.279 -70.703,-144.279L-4.286,-144.279C-1.918,-144.279 0,-142.361 0,-139.993" style="fill:white;fill-rule:nonzero;"/>
            </g>
        </g>
        <g transform="matrix(1,0,0,1,4320,1215)">
            <g transform="matrix(1,0,0,1,764.174,466.674)">
                <path d="M0,102.5L-27.919,74.581C-28.722,73.777 -29.174,72.688 -29.174,71.551L-29.174,37.601C-29.174,36.464 -28.722,35.375 -27.919,34.571L4.56,2.092C6.971,-0.32 10.242,-1.674 13.652,-1.674L99.875,-1.674C103.693,-1.674 105.605,2.942 102.906,5.642L6.061,102.5C4.387,104.174 1.674,104.174 0,102.5" style="fill:white;fill-rule:nonzero;"/>
            </g>
        </g>
    </g>
</svg>
